HIERARCHY
ROOT Hips
{
  OFFSET 5.84602e-005 68.8428 3.50346
  CHANNELS 6 Xposition Yposition Zposition Zrotation Xrotation Yrotation
  JOINT Spine
  {
    OFFSET 0 8.597 -4.6522
    CHANNELS 3 Zrotation Xrotation Yrotation
    JOINT Spine1
    {
      OFFSET 0 7.8454 0.4098
      CHANNELS 3 Zrotation Xrotation Yrotation
      JOINT Spine2
      {
        OFFSET 0 9.7078 -2.1609
        CHANNELS 3 Zrotation Xrotation Yrotation
        JOINT Neck
        {
          OFFSET 0 21.8761 -0.4549
          CHANNELS 3 Zrotation Xrotation Yrotation
          JOINT Head
          {
            OFFSET 0 12.3537 3.3602
            CHANNELS 3 Zrotation Xrotation Yrotation
            End Site
            {
              OFFSET 0.0001 18.9506 0.5657
            }
          }
        }
        JOINT LeftShoulder
        {
          OFFSET 2.2086 21.1115 7.2329
          CHANNELS 3 Zrotation Xrotation Yrotation
          JOINT LeftArm
          {
            OFFSET 13.1193 3.0282 -4.8998
            CHANNELS 3 Zrotation Xrotation Yrotation
            JOINT LeftForeArm
            {
              OFFSET 27.4081 -0.0973053 -0.2375
              CHANNELS 3 Zrotation Xrotation Yrotation
              JOINT LeftHand
              {
                OFFSET 22.8641 0.0662994 -0.1369
                CHANNELS 3 Zrotation Xrotation Yrotation
                JOINT LeftHandIndex1
                {
                  OFFSET 8.8614 0.775009 2.4612
                  CHANNELS 3 Zrotation Xrotation Yrotation
                  JOINT LeftHandIndex2
                  {
                    OFFSET 3.3146 -0.808304 0.5841
                    CHANNELS 3 Zrotation Xrotation Yrotation
                    JOINT LeftHandIndex3
                    {
                      OFFSET 2.2628 -0.552002 0.3989
                      CHANNELS 3 Zrotation Xrotation Yrotation
                      End Site
                      {
                        OFFSET 1.6102 -0.4807 0.2612
                      }
                    }
                  }
                }
                JOINT LeftHandMiddle1
                {
                  OFFSET 8.9937 0.895004 0.2143
                  CHANNELS 3 Zrotation Xrotation Yrotation
                  JOINT LeftHandMiddle2
                  {
                    OFFSET 4.0984 0.0113983 -0.0242
                    CHANNELS 3 Zrotation Xrotation Yrotation
                    JOINT LeftHandMiddle3
                    {
                      OFFSET 2.2716 0.00689697 -0.0138001
                      CHANNELS 3 Zrotation Xrotation Yrotation
                      End Site
                      {
                        OFFSET 2.0404 -0.1441 0.0027
                      }
                    }
                  }
                }
                JOINT LeftHandRing1
                {
                  OFFSET 8.5234 0.597198 -2.0164
                  CHANNELS 3 Zrotation Xrotation Yrotation
                  JOINT LeftHandRing2
                  {
                    OFFSET 3.7188 -0.188293 -0.2328
                    CHANNELS 3 Zrotation Xrotation Yrotation
                    JOINT LeftHandRing3
                    {
                      OFFSET 2.1191 -0.106598 -0.1332
                      CHANNELS 3 Zrotation Xrotation Yrotation
                      End Site
                      {
                        OFFSET 1.8737 -0.2304 -0.0886
                      }
                    }
                  }
                }
                JOINT LeftHandPinky1
                {
                  OFFSET 7.9094 -0.601089 -3.4825
                  CHANNELS 3 Zrotation Xrotation Yrotation
                  JOINT LeftHandPinky2
                  {
                    OFFSET 2.2874 -0.477005 -0.6314
                    CHANNELS 3 Zrotation Xrotation Yrotation
                    JOINT LeftHandPinky3
                    {
                      OFFSET 1.6774 -0.349396 -0.4633
                      CHANNELS 3 Zrotation Xrotation Yrotation
                      End Site
                      {
                        OFFSET 1.4888 -0.4091 -0.3416
                      }
                    }
                  }
                }
                JOINT LeftHandThumb1
                {
                  OFFSET 1.833 -1.3875 1.3896
                  CHANNELS 3 Zrotation Xrotation Yrotation
                  JOINT LeftHandThumb2
                  {
                    OFFSET 3.4129 -1.121 2.5732
                    CHANNELS 3 Zrotation Xrotation Yrotation
                    JOINT LeftHandThumb3
                    {
                      OFFSET 2.2474 -0.804199 1.6192
                      CHANNELS 3 Zrotation Xrotation Yrotation
                      End Site
                      {
                        OFFSET 1.6527 -0.5689 1.1317
                      }
                    }
                  }
                }
              }
            }
          }
        }
        JOINT RightShoulder
        {
          OFFSET -2.2086 21.1115 7.2329
          CHANNELS 3 Zrotation Xrotation Yrotation
          JOINT RightArm
          {
            OFFSET -13.1216 3.0287 -4.9007
            CHANNELS 3 Zrotation Xrotation Yrotation
            JOINT RightForeArm
            {
              OFFSET -27.4081 -0.0973053 -0.2375
              CHANNELS 3 Zrotation Xrotation Yrotation
              JOINT RightHand
              {
                OFFSET -22.8641 0.0664063 -0.1369
                CHANNELS 3 Zrotation Xrotation Yrotation
                JOINT RightHandIndex1
                {
                  OFFSET -8.8614 0.774994 2.4612
                  CHANNELS 3 Zrotation Xrotation Yrotation
                  JOINT RightHandIndex2
                  {
                    OFFSET -3.3146 -0.808304 0.5841
                    CHANNELS 3 Zrotation Xrotation Yrotation
                    JOINT RightHandIndex3
                    {
                      OFFSET -2.2628 -0.552002 0.3989
                      CHANNELS 3 Zrotation Xrotation Yrotation
                      End Site
                      {
                        OFFSET -1.6102 -0.4807 0.2612
                      }
                    }
                  }
                }
                JOINT RightHandMiddle1
                {
                  OFFSET -8.9937 0.894989 0.2143
                  CHANNELS 3 Zrotation Xrotation Yrotation
                  JOINT RightHandMiddle2
                  {
                    OFFSET -4.0984 0.0113983 -0.0242
                    CHANNELS 3 Zrotation Xrotation Yrotation
                    JOINT RightHandMiddle3
                    {
                      OFFSET -2.2716 0.00691223 -0.0138001
                      CHANNELS 3 Zrotation Xrotation Yrotation
                      End Site
                      {
                        OFFSET -2.0404 -0.1441 0.0027
                      }
                    }
                  }
                }
                JOINT RightHandRing1
                {
                  OFFSET -8.5234 0.597198 -2.0164
                  CHANNELS 3 Zrotation Xrotation Yrotation
                  JOINT RightHandRing2
                  {
                    OFFSET -3.7188 -0.188309 -0.2328
                    CHANNELS 3 Zrotation Xrotation Yrotation
                    JOINT RightHandRing3
                    {
                      OFFSET -2.1191 -0.106598 -0.1332
                      CHANNELS 3 Zrotation Xrotation Yrotation
                      End Site
                      {
                        OFFSET -1.8737 -0.2304 -0.0886
                      }
                    }
                  }
                }
                JOINT RightHandPinky1
                {
                  OFFSET -7.9094 -0.601105 -3.4825
                  CHANNELS 3 Zrotation Xrotation Yrotation
                  JOINT RightHandPinky2
                  {
                    OFFSET -2.2874 -0.477005 -0.6314
                    CHANNELS 3 Zrotation Xrotation Yrotation
                    JOINT RightHandPinky3
                    {
                      OFFSET -1.6774 -0.349396 -0.4633
                      CHANNELS 3 Zrotation Xrotation Yrotation
                      End Site
                      {
                        OFFSET -1.4888 -0.4091 -0.3416
                      }
                    }
                  }
                }
                JOINT RightHandThumb1
                {
                  OFFSET -1.833 -1.38751 1.3896
                  CHANNELS 3 Zrotation Xrotation Yrotation
                  JOINT RightHandThumb2
                  {
                    OFFSET -3.41299 -1.12099 2.5732
                    CHANNELS 3 Zrotation Xrotation Yrotation
                    JOINT RightHandThumb3
                    {
                      OFFSET -2.24741 -0.804108 1.6192
                      CHANNELS 3 Zrotation Xrotation Yrotation
                      End Site
                      {
                        OFFSET -1.6527 -0.5689 1.1317
                      }
                    }
                  }
                }
              }
            }
          }
        }
      }
    }
  }
  JOINT RightUpLeg
  {
    OFFSET -9.1966 3.8861 -0.7581
    CHANNELS 3 Zrotation Xrotation Yrotation
    JOINT RightLeg
    {
      OFFSET -0.7359 -41.0265 0
      CHANNELS 3 Zrotation Xrotation Yrotation
      JOINT RightFoot
      {
        OFFSET 0 -40.2855 0
        CHANNELS 3 Zrotation Xrotation Yrotation
        JOINT RightToeBase
        {
          OFFSET 0 -5.6122 11.7359
          CHANNELS 3 Zrotation Xrotation Yrotation
          End Site
          {
            OFFSET 0 0 7.8731
          }
        }
      }
    }
  }
  JOINT LeftUpLeg
  {
    OFFSET 9.1965 3.8864 -0.7581
    CHANNELS 3 Zrotation Xrotation Yrotation
    JOINT LeftLeg
    {
      OFFSET 0.7359 -41.0268 0
      CHANNELS 3 Zrotation Xrotation Yrotation
      JOINT LeftFoot
      {
        OFFSET 0 -40.2855 0
        CHANNELS 3 Zrotation Xrotation Yrotation
        JOINT LeftToeBase
        {
          OFFSET 0 -5.6122 11.7359
          CHANNELS 3 Zrotation Xrotation Yrotation
          End Site
          {
            OFFSET 0 0 7.8731
          }
        }
      }
    }
  }
}
MOTION
Frames:	4
Frame Time:	0.0333333
7.3004e-005 3.8426 6.29088 -180 -89.9981 -180 1.46853 0.375701 0.184909 2.93594 0.75603 0.360141 2.93593 0.756018 0.36014 -0.129077 34.6921 -9.57419 -1.31126e-006 5.06212 5.94473e-007 -8.37082 -0.2079 -0.00995375 -23.7653 9.72411 -43.7586 -20.6558 9.71185 -99.8254 -11.9492 -1.62814e-006 5.14943e-006 -1.20761e-006 -4.02342e-008 -1.41855e-006 -1.53351e-006 1.33912e-007 -6.51791e-007 -1.20761e-006 -4.02342e-008 -1.41855e-006 -1.20761e-006 -4.02342e-008 -1.41855e-006 -0.0145832 -8.99283e-005 -2.65432e-006 -1.20767e-006 -4.0054e-008 -1.41855e-006 -1.20761e-006 -4.02342e-008 -1.41855e-006 -0.0186693 -0.0011701 5.58298e-005 -1.20769e-006 -4.00067e-008 -1.41854e-006 -1.20761e-006 -4.02342e-008 -1.41855e-006 -0.0122483 -0.00323719 0.00067259 4.27599e-007 1.89249e-006 -1.83569e-006 -1.20761e-006 -4.02342e-008 -1.41855e-006 -1.53351e-006 1.33912e-007 -6.51791e-007 -1.20761e-006 -4.02342e-008 -1.41855e-006 16.9158 0.0307715 8.30952 45.1795 -19.0827 8.19493 19.396 12.7264 105.105 43.9992 17.3996 -1.13319e-006 -0 0 4.77083e-015 1.64184e-007 1.42805e-007 -3.66922e-007 -1.64184e-007 -1.42805e-007 3.66922e-007 -0 0 4.77083e-015 0.0150233 -9.19901e-005 -1.30939e-006 -1.64186e-007 -1.42757e-007 3.66941e-007 -0 0 4.77083e-015 0.0189958 -0.00119122 -5.95021e-005 -1.64183e-007 -1.42744e-007 3.66947e-007 -0 0 4.77083e-015 0.0122216 -0.00323688 -0.000670621 -3.78852e-006 2.76467e-007 -1.00404e-006 -0 0 4.77083e-015 1.64184e-007 1.42805e-007 -3.66922e-007 -1.64184e-007 -1.42805e-007 3.66922e-007 -7.8316 -19.6703 -4.53012 4.10847 51.7315 -5.53796 -5.0916 27.3141 4.08478 -6.10036e-007 3.26365e-006 8.03746e-008 7.82752 -19.6707 4.52578 -4.11169 51.7321 5.53566 5.08927 27.314 -4.08785 1.02767e-007 -6.20573e-009 -2.80887e-008 
7.3004e-005 3.8426 6.29088 -180 -89.9981 -180 1.46853 0.375701 0.184909 2.93594 0.75603 0.360141 2.93593 0.756018 0.36014 -0.2634 33.0649 -9.06019 -1.97738e-006 6.38305 -5.50111e-007 -8.37082 -0.2079 -0.00995375 -23.5448 9.42751 -43.6971 -21.2153 9.79596 -99.3759 -12.4373 -3.60185e-006 4.17593e-006 -6.4595e-007 3.45154e-007 1.53603e-006 -3.22975e-007 1.72577e-007 7.68013e-007 -5.59082e-015 6.36111e-015 -4.42296e-015 -6.4595e-007 3.45154e-007 1.53603e-006 -0.0146129 -9.00448e-005 6.18827e-007 -2.55935e-015 1.27222e-014 8.44835e-016 -6.4595e-007 3.45154e-007 1.53603e-006 -0.0187778 -0.00117797 6.04948e-005 1.58628e-006 1.89159e-006 -3.61115e-007 -6.4595e-007 3.45154e-007 1.53603e-006 -0.0122564 -0.00324592 0.00067527 1.76173e-014 0 1.38901e-014 -6.4595e-007 3.45154e-007 1.53603e-006 -3.22975e-007 1.72577e-007 7.68013e-007 -5.59082e-015 6.36111e-015 -4.42296e-015 16.9158 0.0307715 8.30952 44.8382 -18.8935 8.3858 20.0132 12.9415 104.018 43.9992 17.3996 1.92804e-006 3.51593e-006 -6.19515e-007 1.70155e-006 -3.22646e-007 -2.82471e-007 7.37604e-007 -1.61323e-007 -1.41236e-007 3.68802e-007 3.51593e-006 -6.19515e-007 1.70155e-006 0.0149721 -9.26941e-005 1.3252e-006 -1.61325e-007 -1.41188e-007 3.68821e-007 3.51593e-006 -6.19515e-007 1.70155e-006 0.0190077 -0.00119468 -5.76304e-005 -1.61322e-007 -1.41174e-007 3.68827e-007 3.51593e-006 -6.19515e-007 1.70155e-006 0.0122961 -0.00325714 -0.00067649 -1.61313e-007 -1.41197e-007 3.68822e-007 3.51593e-006 -6.19515e-007 1.70155e-006 -3.22646e-007 -2.82471e-007 7.37604e-007 -1.61323e-007 -1.41236e-007 3.68802e-007 -7.8316 -19.6703 -4.53012 4.10847 51.7315 -5.53796 -5.0916 27.3141 4.08478 -6.10036e-007 3.26365e-006 8.03746e-008 7.82752 -19.6707 4.52578 -4.11169 51.7321 5.53566 5.08927 27.314 -4.08785 1.02767e-007 -6.20573e-009 -2.80887e-008 
7.3004e-005 3.8426 6.29088 -180 -89.9981 -180 1.46853 0.375701 0.184909 2.93594 0.75603 0.360141 2.93593 0.756018 0.36014 -0.369378 31.5896 -8.6051 -8.08435e-007 7.57849 2.06087e-007 -8.37082 -0.2079 -0.00995375 -23.324 9.13094 -43.6345 -21.7767 9.87579 -98.9245 -12.926 1.65038e-005 1.22336e-007 -1.83567e-006 -2.92844e-006 4.40386e-008 -1.24134e-006 3.2256e-006 -1.32411e-006 -2.41627e-006 -5.29128e-006 -1.95791e-006 -1.83567e-006 -2.92844e-006 4.40386e-008 -0.0146405 -8.03527e-005 -4.32555e-006 -2.73442e-006 -3.12162e-006 -2.1349e-006 -1.83567e-006 -2.92844e-006 4.40386e-008 -0.0187289 -0.00116662 5.75358e-005 -2.73452e-006 -3.12156e-006 -2.13498e-006 -1.83567e-006 -2.92844e-006 4.40386e-008 -0.0122308 -0.00323158 0.000671416 -2.41505e-006 -5.29072e-006 -1.95848e-006 -1.83567e-006 -2.92844e-006 4.40386e-008 -1.24134e-006 3.2256e-006 -1.32411e-006 -2.41627e-006 -5.29128e-006 -1.95791e-006 16.9158 0.0307715 8.30952 44.4963 -18.7053 8.57784 20.6388 13.1457 102.922 43.9992 17.3996 -2.24721e-006 -4.75267e-007 -4.19001e-007 1.11199e-006 -3.16845e-007 -2.79334e-007 7.41324e-007 -1.74931e-014 -1.27222e-014 -1.74931e-014 -4.75267e-007 -4.19001e-007 1.11199e-006 0.0150089 -9.29947e-005 -1.72464e-007 6.36111e-015 -3.18055e-015 -3.18055e-015 -4.75267e-007 -4.19001e-007 1.11199e-006 0.0190322 -0.00120094 -6.03314e-005 -3.18055e-015 -6.36111e-015 -0 -4.75267e-007 -4.19001e-007 1.11199e-006 0.0122668 -0.00324336 -0.000675366 -6.36111e-015 -1.27222e-014 3.18055e-015 -4.75267e-007 -4.19001e-007 1.11199e-006 -3.16845e-007 -2.79334e-007 7.41324e-007 -1.74931e-014 -1.27222e-014 -1.74931e-014 -7.8316 -19.6703 -4.53012 4.10847 51.7315 -5.53796 -5.0916 27.3141 4.08478 -6.10036e-007 3.26365e-006 8.03746e-008 7.82752 -19.6707 4.52578 -4.11169 51.7321 5.53566 5.08927 27.314 -4.08785 1.02767e-007 -6.20573e-009 -2.80887e-008 
7.3004e-005 3.8426 6.29088 -180 -89.9981 -180 1.46853 0.375701 0.184909 2.93594 0.75603 0.360141 2.93593 0.756018 0.36014 -0.460445 30.1094 -8.1588 -7.34521e-007 8.77606 2.95932e-007 -8.37082 -0.2079 -0.00995375 -23.1028 8.83449 -43.5707 -22.34 9.95143 -98.4714 -13.4152 8.97311e-006 8.28777e-007 5.56597e-015 6.36111e-015 -3.77691e-015 9.64106e-015 3.18055e-015 -4.67144e-015 7.15625e-015 -3.18055e-015 -1.88845e-015 5.56597e-015 6.36111e-015 -3.77691e-015 -0.0146102 -9.1362e-005 5.00496e-007 1.98785e-015 6.36111e-015 -3.08116e-015 5.56597e-015 6.36111e-015 -3.77691e-015 -0.0187157 -0.00117531 5.71508e-005 -5.56597e-015 9.54166e-015 -1.09332e-015 5.56597e-015 6.36111e-015 -3.77691e-015 -0.0122583 -0.00324587 0.000674111 6.95746e-016 -3.18055e-015 -2.28602e-015 5.56597e-015 6.36111e-015 -3.77691e-015 9.64106e-015 3.18055e-015 -4.67144e-015 7.15625e-015 -3.18055e-015 -1.88845e-015 16.9158 0.0307715 8.30952 44.1537 -18.5179 8.77107 21.2725 13.3392 101.815 43.9992 17.3996 1.19871e-007 3.60194e-006 4.31163e-007 -2.46154e-007 -2.98001e-006 1.21224e-007 -1.24385e-006 3.60194e-006 4.31163e-007 -2.46154e-007 3.60194e-006 4.31163e-007 -2.46154e-007 0.0149967 -8.98757e-005 1.57145e-006 3.60209e-006 4.3113e-007 -2.46214e-007 3.60194e-006 4.31163e-007 -2.46154e-007 0.0190042 -0.0011963 -5.99283e-005 3.60213e-006 4.31112e-007 -2.46264e-007 3.60194e-006 4.31163e-007 -2.46154e-007 0.0122561 -0.00324486 -0.000678135 3.60206e-006 4.31125e-007 -2.46309e-007 3.60194e-006 4.31163e-007 -2.46154e-007 -2.98001e-006 1.21224e-007 -1.24385e-006 3.60194e-006 4.31163e-007 -2.46154e-007 -7.8316 -19.6703 -4.53012 4.10847 51.7315 -5.53796 -5.0916 27.3141 4.08478 -6.10036e-007 3.26365e-006 8.03746e-008 7.82752 -19.6707 4.52578 -4.11169 51.7321 5.53566 5.08927 27.314 -4.08785 1.02767e-007 -6.20573e-009 -2.80887e-008 
